<svg viewBox="0 0 118.79 118.59" xmlns="http://www.w3.org/2000/svg"><rect fill="#f7afa3" height="50" opacity=".15" rx="25" transform="matrix(.70710678 -.70710678 .70710678 .70710678 -24.56 59.29)" width="147" x="-14.21" y="34.29"/><path d="m12.79 12.29h20v80h-20z" fill="#f7afa3"/><path d="m74.79 23.29h20v70h-20z" fill="#f5a8a0"/><path d="m43.79 46.29h20v45h-20z" fill="#fff"/><path d="m105.29 53.29a6.5 6.5 0 1 1 6.5-6.5 6.51 6.51 0 0 1 -6.5 6.5zm0-10a3.5 3.5 0 1 0 3.5 3.5 3.5 3.5 0 0 0 -3.5-3.5z" fill="#3e6177"/><path d="m45.29 35.29a6.5 6.5 0 1 1 6.5-6.5 6.51 6.51 0 0 1 -6.5 6.5zm0-10a3.5 3.5 0 1 0 3.5 3.5 3.5 3.5 0 0 0 -3.5-3.5z" fill="#f5a8a0"/><circle cx="56.04" cy="101.04" fill="#f5a8a0" r="2.75"/><circle cx="26.04" cy="5.04" fill="#f5a8a0" r="2.75"/><circle cx="115.04" cy="96.04" fill="#d5dfeb" r="2.75"/><circle cx="6.04" cy="30.04" fill="#d5dfeb" r="2.75"/><path d="m34.79 93.29h-23v-83h23zm-20-3h17v-77h-17z" fill="#3e6177"/><path d="m65.79 93.79h-23v-49h23zm-20-3h17v-43h-17z" fill="#3e6177"/><path d="m96.79 94.29h-23v-71h23zm-20-3h17v-65h-17z" fill="#3e6177"/><g fill="#fff"><path d="m27.46 16.29h2v14h-2z"/><path d="m27.46 32.29h2v6h-2z"/><path d="m27.46 40.29h2v2h-2z"/><path d="m93.32 87.88h2v12.69h-2z"/><path d="m93.32 102.38h2v5.44h-2z"/><path d="m93.32 109.63h2v1.81h-2z"/><circle cx="92.62" cy="85.95" r="26.17"/></g><circle cx="93.53" cy="85.95" fill="#f5a8a0" r="21.23"/><path d="m92.62 108.68a22.73 22.73 0 1 1 22.73-22.73 22.76 22.76 0 0 1 -22.73 22.73zm0-42.47a19.73 19.73 0 1 0 19.73 19.73 19.76 19.76 0 0 0 -19.73-19.72z" fill="#3e6177"/><path d="m90.7 95.43a1.92 1.92 0 0 1 -1.1-.35l-7.67-5.37a1.5 1.5 0 0 1 1.72-2.46l6.82 4.75 11.13-14.84a1.5 1.5 0 1 1 2.4 1.84l-11.76 15.65a1.92 1.92 0 0 1 -1.54.78z" fill="#fff"/></svg>