<svg enable-background="new 0 0 128 128" viewBox="0 0 128 128" xmlns="http://www.w3.org/2000/svg" xmlns:xlink="http://www.w3.org/1999/xlink"><linearGradient id="a" gradientUnits="userSpaceOnUse" x1="63.032" x2="63.032" y1="46.4479" y2="112.7499"><stop offset="0" stop-color="#57caff"/><stop offset=".2032" stop-color="#53c4fb"/><stop offset=".4615" stop-color="#46b5f1"/><stop offset=".7481" stop-color="#329bdf"/><stop offset="1" stop-color="#1c7ecc"/></linearGradient><path d="m121.1 95.9h-2.6c-1.6 0-2.9-1.3-2.9-2.9v-16.4c0-1.6 1.3-2.9 2.9-2.9h2.6c1.6 0 2.9 1.3 2.9 2.9v16.4c0 1.6-1.3 2.9-2.9 2.9z" fill="#333"/><path d="m114.1 51.1c0-2.9-2.3-5.2-5.2-5.2h-50.1c-3.5 0-5.8 2.5-8 5.1-6.1 7.3-19.6 22-20.6 23.3-.2.2-11.6 1.7-18 2.6-2.6.3-4.6 2.4-4.8 5l-.5 23.8c-.8 4.9 2 7 6.5 7h95.1l10.8-5.2c-.1 0-5.2-56.4-5.2-56.4z" fill="url(#a)"/><path d="m78.1 75.9h-33.6c-1.6 0-2.5-1.9-1.5-3.2l17.4-20.7c.4-.4.9-.7 1.5-.7h16.2c1.4 0 2.5 1.1 2.5 2.5v19.6c0 1.4-1.1 2.5-2.5 2.5z" fill="#b7e6fc"/><path d="m107.7 75.9h-19.1c-1.4 0-2.6-1.2-2.6-2.6v-19.4c0-1.5 1.2-2.6 2.6-2.6h17c1.4 0 2.6 1.2 2.6 2.6l2.1 19.4c0 1.4-1.2 2.6-2.6 2.6z" fill="#b7e6fc"/><path d="m5.5 112.3h113.7c.9-.5 1.5-1.5 1.5-2.6v-4.3c0-1.7-1.4-3.1-3.1-3.1h-3.9c-2.8-7-9.6-11.9-17.5-11.9s-14.7 4.9-17.5 11.9h-31.6c-2.8-7-9.5-11.9-17.5-11.9s-14.7 4.9-17.5 11.9h-5c-1.7 0-3.1 1.4-3.1 3.1v4.3c0 1.1.6 2.1 1.5 2.6z" fill="#546e7a"/><circle cx="29.6" cy="109.3" fill="#3e2723" r="15.3"/><circle cx="29.6" cy="109.3" fill="#bdbdbd" r="6.1"/><circle cx="96.3" cy="109.3" fill="#3e2723" r="15.3"/><circle cx="96.3" cy="109.3" fill="#bdbdbd" r="6.1"/><path d="m16.5 85.6-1.1 2.7c-.9 2.2-1.8 2.7-4.9 2.7h-3.3l.2-8.4h6.9c1.6-.1 2.8 1.4 2.2 3z" fill="#fff9c4"/><path d="m117.8 91.6h-3.9v-11h2.9z" fill="#f44336"/><path d="m78.1 53.3c.2 0 .5.2.5.5v19.6c0 .2-.2.5-.5.5h-33.3l17.2-20.6zm0-2h-16.2c-.6 0-1.1.2-1.5.7l-17.4 20.7c-1 1.2-.2 3.2 1.5 3.2h33.6c1.4 0 2.5-1.1 2.5-2.5v-19.6c0-1.4-1.1-2.5-2.5-2.5z" fill="#424242" opacity=".2"/><path d="m105.6 53.3c.3 0 .6.3.6.6v.2l2 19.2c0 .3-.3.5-.6.5h-19c-.3 0-.6-.3-.6-.6v-19.3c0-.3.3-.6.6-.6zm0-2h-17c-1.4 0-2.6 1.2-2.6 2.6v19.4c0 1.4 1.2 2.6 2.6 2.6h19.1c1.4 0 2.6-1.2 2.6-2.6l-2.1-19.4c.1-1.5-1.1-2.6-2.6-2.6z" fill="#424242" opacity=".2"/><path d="m51.9 80.6c-1 0-2.8-1.7-4.2-3.1-1.2-1.3-1.3-3.4-.2-4.8 1.4-1.6 3.3-3.1 4.3-3.1 1.7 0 3.1 1.4 3.1 3.1v4.9c0 1.6-1.3 3-3 3z" fill="#546e7a"/><path d="m108.9 48c1.7 0 3.1 1.4 3.1 3.1v.2l2.2 23.7c.1.8.7 1.5 1.5 1.8.2.1.4.1.6.1.6 0 1.2-.3 1.6-.8.1-.1.3-.3.7-.3h2.6c.4 0 .8.4.8.8v16.4c0 .4-.4.8-.8.8h-2.6-.1c-.1 0-.2 0-.2 0-.5 0-1 .2-1.4.6s-.7 1-.6 1.7l.6 6.7c.1.8.6 1.4 1.3 1.7.3.1.7.5.7.9v4.3c0 .2-.1.4-.2.6h-7.2c-1 0-1.8.7-2 1.7-1.2 6.2-6.7 10.7-13 10.7-6.2 0-11.6-4.4-13-10.4-.2-.9-1-1.6-2-1.6h-36.9c-1 0-1.8.7-2 1.6-1.3 6-6.8 10.4-13 10.4s-11.6-4.4-13-10.4c-.2-.9-1-1.6-2-1.6h-1.3c-.9 0-1.6-.1-2.3-.3-.2-.1-.4-.1-.6-.1h-4.1c-.1-.2-.2-.4-.2-.6v-4.3c0-.5.4-1 1-1 1.1 0 1.9-.9 2-2l.3-20.4c.2-1.6 1.4-2.8 3-3.1 3.2-.4 7.7-1 11.4-1.5 7.3-1 7.3-1 7.9-1.7.3-.4 2.6-2.9 5.2-5.8 4.9-5.4 11.5-12.8 15.4-17.5 2.3-2.8 4.1-4.4 6.5-4.4zm0-2h-50.1c-3.5 0-5.8 2.5-8 5.1-6.1 7.3-19.6 22-20.6 23.3-.1.1-11.4 1.6-17.9 2.5-2.6.3-4.6 2.4-4.8 5l-.5 20.5c-1.6.1-3 1.4-3 3.1v4.3c0 1.1.6 2.1 1.5 2.6h5c.8.2 1.8.4 2.8.4h1.3c1.5 6.8 7.6 12 15 12 7.3 0 13.4-5.1 15-12h36.7c1.5 6.8 7.6 12 15 12s13.6-5.3 15-12.3h7.9c.9-.5 1.5-1.5 1.5-2.6v-4.3c0-1.3-.8-2.4-2-2.9l-.6-6.7h.3 2.6c1.6 0 2.9-1.3 2.9-2.9v-16.5c0-1.6-1.3-2.9-2.9-2.9h-2.6c-.9 0-1.7.4-2.3 1.1l-2.2-23.7c.2-2.8-2.1-5.1-5-5.1z" fill="#424242" opacity=".2"/></svg>